<svg id="Capa_1" data-name="Capa 1" xmlns="http://www.w3.org/2000/svg" viewBox="0 0 1080 1080"><defs><style>.cls-1{fill:#272727;}</style></defs><title>logo_rutzchile</title><polygon class="cls-1" points="302.93 838.45 412.38 777.37 412.38 616.94 302.93 616.94 302.93 838.45"/><polygon class="cls-1" points="441.35 758.58 515.51 716.91 550.79 758.58 550.79 539.49 441.35 539.49 441.35 758.58"/><polygon class="cls-1" points="584.53 797.32 602.88 818.79 693.98 764.37 693.98 482.23 584.53 482.23 584.53 797.32"/><path class="cls-1" d="M863.27,677.24V408.68A105.45,105.45,0,0,0,757.94,303.35H389.32c-128.06,0-232.25,104.18-232.25,232.24V940.43l-50,27.87v45.48L487.6,842.54l98,125.29L846.54,803.67l26.61,36,99.76-174.44Zm-266,168.09L513.4,741.71,224.79,902.66V535.59c0-90.72,73.81-164.53,164.53-164.53H757.94a37.67,37.67,0,0,1,37.62,37.62v276l-34.87,3.82,30.83,39.3Z"/><path class="cls-1" d="M171.66,207V91.56h42.45q15,0,25.53,3.28t16.21,10.56q5.64,7.29,5.64,20a42.42,42.42,0,0,1-3,16.51A24.49,24.49,0,0,1,249.69,153q-5.83,4-14.46,4,6.17,0,9.64,2.36a14.73,14.73,0,0,1,5.23,6.16,29.26,29.26,0,0,1,2.36,8.1q.61,4.31,1.13,8.41a27.4,27.4,0,0,0,1.74,7.07,6.48,6.48,0,0,0,3.9,3.9c1.78.61,4.38.31,7.79-.92v12.1a20.84,20.84,0,0,1-9.23,4.41,18.84,18.84,0,0,1-10.46-.72,17.2,17.2,0,0,1-8.61-7.28q-3.5-5.43-3.49-15.28a100,100,0,0,0-.61-12.1,16.78,16.78,0,0,0-2.77-7.9,13.12,13.12,0,0,0-6.77-4.51,46.2,46.2,0,0,0-12.41-1.85q-7.78-.3-20.09.31V207Zm20.92-63h20.71a121.65,121.65,0,0,0,16.71-.92q6.47-.93,9.64-4.61c2.12-2.47,3.18-6.29,3.18-11.49q0-8.82-3.89-12.72t-11.39-4.82a154.73,154.73,0,0,0-18.35-.92H192.58Z"/><path class="cls-1" d="M310.91,209.08q-8.82,0-14.46-2.87a22.9,22.9,0,0,1-8.82-7.59A32.85,32.85,0,0,1,283,188.16a67.4,67.4,0,0,1-1.85-11.59q-.41-5.85-.41-10.77V122.73h20.31V165.8a56.22,56.22,0,0,0,1.23,12,16.84,16.84,0,0,0,5.23,9.23q4,3.58,12.2,3.59,8,0,12.1-3.59a17.73,17.73,0,0,0,5.54-9.23A53.79,53.79,0,0,0,339,166.42V122.73h21.54V207H342.7l-3.48-16h-.41a28.19,28.19,0,0,1-2.05,4.1,32,32,0,0,1-4.82,6.15,26,26,0,0,1-8.31,5.54A31.51,31.51,0,0,1,310.91,209.08Z"/><path class="cls-1" d="M371,137.5V122.73a36.42,36.42,0,0,0,7.38-.61,8.06,8.06,0,0,0,4.61-2.67,13.86,13.86,0,0,0,2.57-6.36,67.56,67.56,0,0,0,.82-11.89h16.82v21.53h19.28V137.5ZM403.82,207q-10.05,0-15.07-4.93t-5-16V135.24h19.49v55.38H422.9V207Z"/><path class="cls-1" d="M438.28,207V191.85l51.06-53.94H441.15V122.32h72.6V137.5l-50,53.94h50V207Z"/><path class="cls-1" d="M584.1,209.08a63.74,63.74,0,0,1-29.33-6.67A50,50,0,0,1,534,182.62q-7.69-13.12-7.69-32.81.21-19.27,7.79-32.82a50.57,50.57,0,0,1,20.82-20.51,63,63,0,0,1,29.84-7q16,0,27.28,5.74a48.52,48.52,0,0,1,18.15,15.59A53.55,53.55,0,0,1,639.06,133H617.53q-1.44-9-6.67-14.26a29.27,29.27,0,0,0-12.2-7.38,46.92,46.92,0,0,0-13.95-2.15q-18.26,0-28,10.25T547,148.37q0,19.89,9.53,30.56t27.79,10.66a47.1,47.1,0,0,0,14.77-2.35,29.15,29.15,0,0,0,12.31-7.8q5.11-5.43,6.56-14.66h21.74a59.5,59.5,0,0,1-9,22.66,46.34,46.34,0,0,1-18.36,15.9Q600.71,209.07,584.1,209.08Z"/><path class="cls-1" d="M654.65,207V91.56h21.53V141h.41q.21-.62,1.44-3.39a25.8,25.8,0,0,1,4.31-6.25,26.34,26.34,0,0,1,8.3-6q5.24-2.56,13.23-2.57,8.82,0,14.56,3.08a25.42,25.42,0,0,1,9.13,8,34,34,0,0,1,4.92,10.77,62.25,62.25,0,0,1,1.95,11.48c.27,3.76.41,7.15.41,10.15V207h-20.3V166a52.59,52.59,0,0,0-1.34-12.31,17.12,17.12,0,0,0-5.23-9q-3.9-3.5-11.89-3.49T683.77,145a19.67,19.67,0,0,0-5.95,9.53,44.77,44.77,0,0,0-1.64,12.31V207Z"/><path class="cls-1" d="M764.58,111.86q-6.78,0-9.13-3.48a14,14,0,0,1-2.36-8,13.5,13.5,0,0,1,2.36-7.9q2.35-3.37,9.13-3.38c4.64,0,7.69,1.13,9.12,3.38a14.37,14.37,0,0,1,2.16,7.9,14.89,14.89,0,0,1-2.16,8C772.27,110.7,769.22,111.86,764.58,111.86ZM754.12,207v-84.3H775V207Z"/><path class="cls-1" d="M794.72,207V91.56h20.51V207Z"/><path class="cls-1" d="M872,209.08q-14.56,0-23.68-6.26a38,38,0,0,1-13.54-16.1,52,52,0,0,1-4.61-20.51A47.66,47.66,0,0,1,835,143.55,37.66,37.66,0,0,1,849.38,128q9.33-5.64,22-5.64a41.58,41.58,0,0,1,20.3,4.93A36.71,36.71,0,0,1,906,141q5.22,8.82,5.43,21.12v5.33H850.1q0,11.7,5.85,17.95t15.68,6.26a21.2,21.2,0,0,0,13-3.9,15.4,15.4,0,0,0,6.25-10.26h20.31a33.3,33.3,0,0,1-5.74,16,34.49,34.49,0,0,1-13.34,11.38Q883.74,209.07,872,209.08ZM850.71,158H890.5c-.13-1-.41-2.46-.82-4.51a19.36,19.36,0,0,0-2.66-6.36,16.72,16.72,0,0,0-5.95-5.54A19.94,19.94,0,0,0,871,139.35a21.5,21.5,0,0,0-10,2.05,15.8,15.8,0,0,0-6,5.12,25.84,25.84,0,0,0-3.07,6.16A24.16,24.16,0,0,0,850.71,158Z"/></svg>